<?xml version="1.0" encoding="UTF-8" standalone="no"?>
<!DOCTYPE svg PUBLIC "-//W3C//DTD SVG 1.1//EN" "http://www.w3.org/Graphics/SVG/1.1/DTD/svg11.dtd">
<svg version="1.1" xmlns="http://www.w3.org/2000/svg" xmlns:xlink="http://www.w3.org/1999/xlink" preserveAspectRatio="xMidYMid meet" viewBox="38.808683573401474 38.82183207382342 564.382632853197 564.3563358523531" width="560.38" height="560.36"><defs><path d="M464.25 435.06C463.41 435.06 462.94 435.06 462.85 435.06C548.58 333.97 536.14 182.53 435.05 96.79C333.96 11.06 182.51 23.5 96.78 124.59C11.04 225.68 23.49 377.13 124.58 462.86C214.13 538.81 345.49 538.81 435.05 462.86C435.05 462.86 435.05 463.86 435.05 464.26C448.05 477.26 552.05 581.26 565.05 594.26C572.83 602.1 585.49 602.16 593.33 594.38C593.37 594.34 593.41 594.3 593.45 594.26C601.72 586.94 602.49 574.3 595.17 566.03C594.87 565.7 594.57 565.37 594.25 565.06C576.92 547.73 533.58 504.4 464.25 435.06ZM80.05 279.26C80.05 168.81 169.59 79.26 280.05 79.26C390.51 79.26 480.05 168.81 480.05 279.26C480.05 389.72 390.51 479.26 280.05 479.26C169.59 479.26 80.05 389.72 80.05 279.26Z" id="kwpVxjIfk"></path></defs><g><g><use xlink:href="#kwpVxjIfk" opacity="1" fill="#000000" fill-opacity="0.46"></use><g><use xlink:href="#kwpVxjIfk" opacity="1" fill-opacity="0" stroke="#000000" stroke-width="1" stroke-opacity="0"></use></g></g></g></svg>